<!--?xml version="1.0" standalone="no"?-->

<svg version="1.0" xmlns="http://www.w3.org/2000/svg" width="300.000000pt" height="300.000000pt" viewBox="0 0 300.000000 300.000000" preserveAspectRatio="xMidYMid meet">
<g transform="translate(0.000000,300.000000) scale(0.100000,-0.100000)" fill="#1C1C1C" stroke="none">
<path class="node" id="node1" d="M1370 2774 c-172 -21 -289 -55 -435 -126 -360 -176 -618 -516 -696
-918 -17 -84 -17 -376 0 -460 78 -402 336 -742 696 -918 196 -96 331 -126 565
-126 234 0 369 30 565 126 360 176 618 516 696 918 17 84 17 376 0 460 -78
402 -336 742 -696 918 -112 55 -219 91 -330 112 -64 12 -306 21 -365 14z m370
-58 c128 -28 187 -48 305 -107 258 -128 436 -306 564 -564 96 -193 124 -315
124 -545 0 -165 -7 -219 -48 -365 -19 -69 -98 -237 -146 -310 -184 -281 -458
-465 -804 -542 -96 -22 -374 -22 -470 0 -138 30 -192 49 -310 108 -258 128
-436 306 -564 564 -96 193 -124 315 -124 545 0 230 28 352 124 545 128 258
306 436 564 564 140 70 247 103 389 121 91 11 312 3 396 -14z"></path>
</g>
<g transform="translate(0.000000,300.000000) scale(0.100000,-0.100000)" fill="#A1A1A1" stroke="none">


</g>
</svg>