<!DOCTYPE svg PUBLIC "-//W3C//DTD SVG 20010904//EN" "http://www.w3.org/TR/2001/REC-SVG-20010904/DTD/svg10.dtd">
<svg version="1.0" xmlns="http://www.w3.org/2000/svg" width="256px" height="280px" viewBox="0 0 2560 2800" preserveAspectRatio="xMidYMid meet">
<g id="layer1" fill="#797979" stroke="none">
 <path d="M227 1423 c-32 -3 -50 -9 -54 -20 -15 -39 35 -292 80 -403 83 -204 228 -383 408 -503 141 -93 228 -128 419 -168 161 -33 365 -18 534 41 199 68 392 207 513 368 135 180 208 370 220 580 l6 112 -1039 -2 c-571 -1 -1061 -3 -1087 -5z m2078 -95 c-23 -200 -85 -370 -188 -522 -52 -77 -186 -210 -260 -260 -186 -123 -376 -180 -597 -181 -284 0 -525 100 -730 305 -178 177 -280 394 -306 644 l-7 66 1047 0 1047 0 -6 -52z"/>
 </g>

</svg>