<svg width="300" height="300" xmlns="http://www.w3.org/2000/svg" preserveAspectRatio="xMidYMid meet">

 <g>
  <title>background</title>
  <rect fill="none" id="canvas_background" height="402" width="582" y="-1" x="-1"/>
 </g>
 <g>
  <title>Layer 1</title>
  <g id="svg_1" fill="#1C1C1C" transform="translate(0.000000,300.000000) scale(0.100000,-0.100000)">
   <path d="m1370,2774c-172,-21 -289,-55 -435,-126c-360,-176 -618,-516 -696,-918c-17,-84 -17,-376 0,-460c78,-402 336,-742 696,-918c196,-96 331,-126 565,-126c234,0 369,30 565,126c360,176 618,516 696,918c17,84 17,376 0,460c-78,402 -336,742 -696,918c-112,55 -219,91 -330,112c-64,12 -306,21 -365,14zm370,-58c128,-28 187,-48 305,-107c258,-128 436,-306 564,-564c96,-193 124,-315 124,-545c0,-165 -7,-219 -48,-365c-19,-69 -98,-237 -146,-310c-184,-281 -458,-465 -804,-542c-96,-22 -374,-22 -470,0c-138,30 -192,49 -310,108c-258,128 -436,306 -564,564c-96,193 -124,315 -124,545c0,230 28,352 124,545c128,258 306,436 564,564c140,70 247,103 389,121c91,11 312,3 396,-14z" id="node1" class="node"/>
  </g>
  <g id="svg_2" fill="#A1A1A1" transform="translate(0.000000,300.000000) scale(0.100000,-0.100000)"/>
  <ellipse ry="126.000007" rx="123.499997" id="svg_5" cy="149.283318" cx="150.000003" stroke-width="1.5" stroke="#000" fill="#ed1c24"/>
 </g>
</svg>