<!DOCTYPE svg PUBLIC "-//W3C//DTD SVG 20010904//EN" "http://www.w3.org/TR/2001/REC-SVG-20010904/DTD/svg10.dtd">
<svg version="1.0" xmlns="http://www.w3.org/2000/svg" width="256px" height="280px" viewBox="0 0 2560 2800" preserveAspectRatio="xMidYMid meet">
<g id="layer1" fill="#cbcbcb" stroke="none">
 <path d="M176 1408 c-18 -25 -11 -44 10 -27 11 9 14 8 14 -4 0 -8 -7 -17 -15 -21 -17 -6 -21 -71 -6 -80 5 -3 7 -15 4 -26 -3 -11 0 -26 6 -33 6 -8 8 -17 5 -20 -7 -6 24 -145 36 -162 3 -5 12 -28 18 -51 7 -23 22 -57 35 -76 13 -19 40 -62 60 -96 43 -74 45 -75 122 -159 154 -167 341 -271 590 -327 87 -20 104 -20 111 -1 4 8 13 15 21 15 13 0 13 -3 3 -15 -15 -18 4 -28 44 -23 33 4 35 21 4 28 -16 4 -19 8 -10 14 23 14 1 27 -42 25 -22 -1 -48 1 -56 4 -8 3 -42 11 -75 17 -71 13 -108 25 -195 63 -19 9 -48 21 -64 26 -60 23 -145 89 -246 191 -165 165 -173 176 -258 380 -17 42 -41 133 -48 180 -9 71 -13 78 -30 56 -13 -19 -14 -19 -14 7 0 15 5 27 10 27 6 0 15 11 20 25 l9 25 1036 2 c682 2 1035 6 1035 13 0 7 -321 11 -937 13 -820 2 -938 4 -946 17 -6 12 -31 15 -122 15 -105 0 -115 -2 -129 -22z"/>
 <path d="M2336 1423 c-3 -3 -6 -33 -6 -66 0 -51 -2 -58 -15 -47 -19 16 -23 5 -28 -70 -3 -30 -12 -72 -21 -94 -9 -21 -16 -47 -16 -57 0 -10 -4 -20 -9 -24 -5 -3 -12 -19 -16 -36 -10 -42 -89 -194 -120 -227 -14 -15 -25 -30 -25 -33 0 -21 -268 -259 -292 -259 -4 0 -43 -18 -88 -39 -44 -22 -97 -45 -117 -51 -21 -7 -43 -16 -49 -21 -6 -5 -14 -6 -17 -3 -5 6 -89 -10 -127 -23 -8 -3 -39 -6 -67 -7 -52 -1 -76 -17 -37 -25 10 -2 23 -9 27 -17 20 -34 254 6 359 62 14 8 32 14 40 14 7 0 45 20 83 44 39 24 90 57 115 72 90 57 213 187 276 293 22 37 100 190 115 226 17 43 51 198 46 216 -3 10 -1 22 4 25 11 7 12 141 0 148 -4 3 -11 3 -15 -1z"/>
 </g>
<g id="layer2" fill="#474747" stroke="none">
 <path d="M295 1421 l-120 -6 3 -75 c10 -262 129 -526 317 -709 169 -164 326 -247 553 -295 134 -29 194 -31 340 -15 364 39 680 257 847 585 78 153 120 321 113 454 l-3 65 -965 1 c-531 0 -1019 -2 -1085 -5z m2003 -98 c6 -109 -65 -328 -154 -470 -60 -96 -207 -250 -293 -307 -132 -87 -273 -143 -436 -172 -256 -45 -557 33 -774 201 -228 176 -380 439 -411 712 -4 43 -6 81 -4 85 3 5 470 7 1037 6 l1032 -3 3 -52z"/>
 </g>
<g id="layer3" fill="#ed1c24" stroke="none">
 <path d="M213 1375 c-3 -9 -2 -44 2 -78 43 -385 291 -721 635 -862 36 -15 74 -31 85 -35 105 -43 351 -61 495 -36 351 61 620 258 770 561 33 66 68 155 79 198 24 92 44 234 37 253 -5 12 -169 14 -1051 14 -934 0 -1046 -2 -1052 -15z"/>
 </g>

</svg>