<?xml version="1.0" encoding="utf-8"?>
<!-- Generator: Adobe Illustrator 16.0.0, SVG Export Plug-In . SVG Version: 6.00 Build 0)  -->
<!DOCTYPE svg PUBLIC "-//W3C//DTD SVG 1.1//EN" "http://www.w3.org/Graphics/SVG/1.1/DTD/svg11.dtd">
<svg version="1.1" id="Layer_1" xmlns="http://www.w3.org/2000/svg" xmlns:xlink="http://www.w3.org/1999/xlink" x="0px" y="0px"
	 width="256px" height="280px" viewBox="0 0 256 280" enable-background="new 0 0 256 280" xml:space="preserve">
<g>
	<g>
		<path fill-rule="evenodd" clip-rule="evenodd" fill="#FFFFFF" d="M1,281C1,187.667,1,94.333,1,1c85.333,0,170.666,0,256,0
			c0,93.333,0,186.667,0,280C171.666,281,86.333,281,1,281z M234.949,142.554c0-2.173,0.036-3.957-0.005-5.739
			c-1.438-62.781-60.931-112.635-124.83-102.021C63.222,42.581,22.554,82.17,19.519,136.669c-0.205,3.683,0.303,5.869,4.625,5.364
			c1.639-0.191,3.327,0.064,4.992,0.07c67.131,0.219,134.264,0.435,201.395,0.642C231.688,142.748,232.844,142.648,234.949,142.554z
			"/>
		<path fill-rule="evenodd" clip-rule="evenodd" d="M234.949,142.554c-2.105,0.095-3.262,0.194-4.418,0.191
			c-67.131-0.207-134.263-0.423-201.395-0.642c-1.666-0.006-3.353-0.262-4.992-0.07c-4.322,0.505-4.831-1.682-4.625-5.364
			c3.035-54.499,43.703-94.088,90.596-101.876c63.899-10.613,123.391,39.24,124.83,102.021
			C234.985,138.597,234.949,140.381,234.949,142.554z M22.016,139.938c70.646,0,140.218,0,210.74,0
			c-1.263-35.658-15.767-64.214-44.403-84.417c-35.007-24.696-78.113-27.308-115.316-4.263
			C40.64,71.325,23.633,100.96,22.016,139.938z"/>
		<path fill-rule="evenodd" clip-rule="evenodd" fill="#FFFFFF" d="M22.016,139.938c1.617-38.978,18.624-68.612,51.021-88.68
			c37.203-23.045,80.309-20.434,115.316,4.263c28.637,20.203,43.141,48.759,44.403,84.417
			C162.233,139.938,92.661,139.938,22.016,139.938z"/>
	</g>
</g>
</svg>
